<svg xmlns="http://www.w3.org/2000/svg" xmlns:xlink="http://www.w3.org/1999/xlink" width="500" zoomAndPan="magnify" viewBox="0 0 375 374.999991" height="500" preserveAspectRatio="xMidYMid meet" version="1.0"><defs><g/></defs><path fill="rgb(25.099182%, 25.099182%, 25.099182%)" d="M 276.289062 236.246094 L 83.804688 236.246094 C 81.875 236.246094 80.296875 234.664062 80.296875 232.726562 L 80.296875 167.015625 C 80.296875 165.078125 81.875 163.496094 83.804688 163.496094 L 276.289062 163.496094 C 278.222656 163.496094 279.796875 165.078125 279.796875 167.015625 L 279.796875 232.726562 C 279.796875 234.664062 278.222656 236.246094 276.289062 236.246094 " fill-opacity="1" fill-rule="nonzero"/><path fill="rgb(57.649231%, 43.919373%, 85.879517%)" d="M 281.824219 226.816406 L 93.089844 226.816406 C 91.15625 226.816406 89.582031 225.234375 89.582031 223.296875 L 89.582031 157.585938 C 89.582031 155.648438 91.15625 154.066406 93.089844 154.066406 L 281.824219 154.066406 C 283.757812 154.066406 285.332031 155.648438 285.332031 157.585938 L 285.332031 223.296875 C 285.332031 225.234375 283.757812 226.816406 281.824219 226.816406 " fill-opacity="1" fill-rule="nonzero"/><g fill="rgb(15.689087%, 15.689087%, 15.689087%)" fill-opacity="1"><g transform="translate(115.380899, 205.503224)"><g><path d="M 55.609375 -30.226562 C 55.542969 -30.945312 54.953125 -31.402344 54.234375 -31.335938 C 49.523438 -30.75 45.074219 -29.898438 40.953125 -28.71875 C 42.523438 -35.65625 44.03125 -42.132812 45.335938 -47.496094 C 47.5625 -56.785156 47.167969 -61.757812 44.03125 -62.738281 C 40.234375 -63.917969 35.066406 -57.179688 33.039062 -51.816406 C 30.8125 -45.730469 32.058594 -40.953125 36.375 -39.058594 C 37.027344 -38.730469 37.75 -39.058594 38.011719 -39.644531 C 38.335938 -40.300781 38.011719 -41.019531 37.421875 -41.347656 C 33.234375 -43.179688 34.414062 -48.152344 35.460938 -50.964844 C 37.550781 -56.589844 41.804688 -60.777344 43.308594 -60.320312 C 43.964844 -60.125 45.140625 -57.507812 42.851562 -48.085938 C 41.476562 -42.328125 39.84375 -35.328125 38.140625 -27.871094 C 32.1875 -25.90625 26.886719 -23.226562 22.308594 -19.886719 C 15.179688 -14.71875 9.878906 -7.980469 6.671875 0 C 0.851562 14.328125 3.074219 29.765625 8.503906 36.375 C 11.054688 39.449219 14 41.019531 17.011719 41.019531 C 17.597656 41.019531 18.253906 40.953125 18.90625 40.824219 C 23.488281 39.710938 27.019531 34.476562 28.785156 26.167969 C 30.027344 20.410156 35.328125 -4.1875 40.300781 -25.972656 C 44.488281 -27.214844 49.199219 -28.195312 54.496094 -28.851562 C 55.214844 -28.917969 55.738281 -29.503906 55.609375 -30.226562 Z M 26.367188 25.644531 C 24.796875 32.972656 21.917969 37.488281 18.253906 38.402344 C 15.703125 38.992188 12.886719 37.683594 10.46875 34.804688 C 4.1875 27.148438 4.839844 11.253906 8.960938 0.914062 C 12.691406 -8.179688 20.542969 -19.039062 37.488281 -25.058594 C 32.644531 -3.664062 27.542969 20.019531 26.367188 25.644531 Z M 26.367188 25.644531 "/></g></g></g><g fill="rgb(15.689087%, 15.689087%, 15.689087%)" fill-opacity="1"><g transform="translate(166.403875, 205.503224)"><g><path d="M 27.347656 -14.523438 C 26.757812 -14.785156 25.972656 -14.523438 25.710938 -13.933594 C 20.738281 -3.792969 17.011719 -0.589844 15.242188 -0.914062 C 14.523438 -1.046875 12.167969 -2.421875 11.578125 -13.871094 C 11.578125 -14.394531 11.1875 -14.851562 10.730469 -14.980469 C 10.207031 -15.113281 9.617188 -14.980469 9.355469 -14.523438 C 8.960938 -14.066406 8.570312 -13.542969 8.179688 -12.953125 C 6.542969 -10.730469 4.382812 -7.71875 1.765625 -4.90625 C 1.375 -4.449219 1.046875 -4.1875 0.851562 -4.054688 C 0.390625 -6.347656 2.8125 -15.113281 6.671875 -17.859375 C 7.785156 -18.644531 9.289062 -19.234375 11.316406 -16.878906 C 11.777344 -16.355469 12.5625 -16.289062 13.085938 -16.75 C 13.609375 -17.140625 13.671875 -17.992188 13.28125 -18.515625 C 10.792969 -21.394531 8.441406 -21.328125 6.871094 -20.804688 C 1.832031 -19.039062 -1.570312 -9.355469 -1.699219 -4.90625 C -1.765625 -3.074219 -1.242188 -1.898438 -0.195312 -1.503906 C 1.4375 -0.851562 3.074219 -2.617188 3.597656 -3.207031 C 5.824219 -5.625 7.851562 -8.242188 9.289062 -10.269531 C 10.007812 -2.8125 11.777344 0.914062 14.71875 1.570312 C 14.980469 1.570312 15.242188 1.636719 15.503906 1.636719 C 19.953125 1.636719 24.730469 -6.148438 27.933594 -12.824219 C 28.261719 -13.476562 28 -14.195312 27.347656 -14.523438 Z M 27.347656 -14.523438 "/></g></g></g><g fill="rgb(15.689087%, 15.689087%, 15.689087%)" fill-opacity="1"><g transform="translate(190.737904, 205.503224)"><g><path d="M 19.101562 -14.851562 C 18.515625 -15.242188 17.792969 -15.046875 17.402344 -14.457031 C 13.019531 -7.394531 5.691406 -0.71875 3.46875 -1.636719 C 3.207031 -1.765625 1.113281 -3.007812 3.992188 -14.066406 C 4.121094 -14.785156 3.730469 -15.441406 3.074219 -15.636719 C 2.355469 -15.765625 1.699219 -15.375 1.503906 -14.71875 C -0.851562 -5.496094 -0.523438 -0.589844 2.421875 0.652344 C 2.878906 0.851562 3.335938 0.914062 3.792969 0.914062 C 8.703125 0.914062 16.226562 -7.851562 19.5625 -13.148438 C 19.886719 -13.738281 19.691406 -14.523438 19.101562 -14.851562 Z M 3.664062 -20.148438 C 7 -19.953125 6.933594 -24.140625 4.253906 -23.226562 C 2.878906 -22.832031 1.113281 -20.28125 3.664062 -20.148438 Z M 3.664062 -20.148438 "/></g></g></g><g fill="rgb(15.689087%, 15.689087%, 15.689087%)" fill-opacity="1"><g transform="translate(207.287662, 205.503224)"><g><path d="M 26.300781 -14.589844 C 25.710938 -14.917969 24.925781 -14.71875 24.597656 -14.066406 C 23.027344 -11.382812 18.90625 -4.121094 16.550781 -4.382812 C 16.09375 -4.449219 14.785156 -5.101562 13.476562 -9.683594 C 12.5625 -12.886719 11.316406 -15.898438 8.898438 -16.027344 C 7.132812 -16.160156 5.167969 -14.785156 2.160156 -9.160156 C 2.945312 -11.972656 3.792969 -14.785156 4.449219 -17.074219 C 4.710938 -17.925781 4.90625 -18.644531 5.101562 -19.363281 C 5.300781 -20.019531 4.90625 -20.738281 4.253906 -20.933594 C 3.597656 -21.132812 2.878906 -20.738281 2.683594 -20.019531 C 2.484375 -19.363281 2.289062 -18.578125 2.027344 -17.792969 C 0.328125 -11.972656 -2.222656 -3.140625 -2.878906 2.222656 C -2.945312 2.8125 -2.550781 3.402344 -1.960938 3.53125 C -1.832031 3.597656 -1.765625 3.597656 -1.636719 3.597656 C -1.113281 3.597656 -0.652344 3.269531 -0.457031 2.8125 C 5.691406 -12.496094 8.179688 -13.542969 8.765625 -13.542969 C 8.898438 -13.542969 9.8125 -13.28125 11.054688 -8.960938 C 12.363281 -4.449219 14.066406 -2.160156 16.289062 -1.898438 C 19.625 -1.503906 22.636719 -5.625 26.757812 -12.824219 C 27.148438 -13.476562 26.886719 -14.195312 26.300781 -14.589844 Z M 26.300781 -14.589844 "/></g></g></g><g fill="rgb(15.689087%, 15.689087%, 15.689087%)" fill-opacity="1"><g transform="translate(230.640485, 205.503224)"><g><path d="M 31.992188 -14.394531 C 31.597656 -14.980469 30.8125 -15.113281 30.226562 -14.71875 C 24.597656 -11.054688 18.839844 -7 13.347656 -1.898438 C 14.132812 -6.738281 14.917969 -11.90625 15.636719 -17.335938 C 15.765625 -17.925781 15.375 -18.515625 14.785156 -18.710938 C 14.261719 -18.90625 13.609375 -18.644531 13.347656 -18.121094 C 12.039062 -15.898438 9.160156 -11.316406 6.609375 -8.242188 C 5.691406 -7.132812 4.777344 -6.542969 4.316406 -6.871094 C 3.207031 -7.523438 2.421875 -12.039062 4.972656 -18.253906 C 5.234375 -18.90625 4.90625 -19.625 4.316406 -19.886719 C 3.664062 -20.148438 2.945312 -19.824219 2.683594 -19.167969 C 0 -12.625 0.128906 -6.410156 3.074219 -4.710938 C 3.792969 -4.1875 5.886719 -3.46875 8.503906 -6.609375 C 9.878906 -8.242188 11.1875 -10.074219 12.363281 -11.839844 C 11.710938 -7.328125 11.054688 -3.007812 10.335938 1.113281 C 4.839844 6.738281 -0.328125 13.542969 -4.777344 22.179688 C -12.234375 36.503906 -13.609375 52.402344 -9.878906 56.984375 C -9.160156 57.898438 -8.242188 58.355469 -7.261719 58.355469 C -6.933594 58.355469 -6.671875 58.292969 -6.347656 58.226562 C -2.09375 56.984375 1.699219 47.5625 4.1875 39.84375 C 7.261719 30.226562 10.074219 17.664062 12.691406 2.289062 C 18.777344 -3.792969 25.253906 -8.503906 31.597656 -12.625 C 32.1875 -13.019531 32.382812 -13.804688 31.992188 -14.394531 Z M 1.765625 39.058594 C -2.945312 53.972656 -6.347656 55.609375 -7 55.804688 C -7.261719 55.871094 -7.523438 55.871094 -7.917969 55.414062 C -10.269531 52.535156 -10.46875 38.597656 -2.550781 23.289062 C 1.113281 16.289062 5.167969 10.53125 9.550781 5.625 C 7.195312 19.167969 4.578125 30.355469 1.765625 39.058594 Z M 1.765625 39.058594 "/></g></g></g></svg>